<svg xmlns="http://www.w3.org/2000/svg" version="1.1" xmlns:xlink="http://www.w3.org/1999/xlink" xmlns:svgjs="http://svgjs.dev/svgjs" viewBox="0 0 800 800"><defs><linearGradient x1="50%" y1="0%" x2="50%" y2="100%" id="nnneon-grad"><stop stop-color="hsl(230, 55%, 50%)" stop-opacity="1" offset="0%"></stop><stop stop-color="hsl(230, 55%, 70%)" stop-opacity="1" offset="100%"></stop></linearGradient><filter id="nnneon-filter" x="-100%" y="-100%" width="400%" height="400%" filterUnits="objectBoundingBox" primitiveUnits="userSpaceOnUse" color-interpolation-filters="sRGB">
	<feGaussianBlur stdDeviation="26 19" x="0%" y="0%" width="100%" height="100%" in="SourceGraphic" edgeMode="none" result="blur"></feGaussianBlur></filter><filter id="nnneon-filter2" x="-100%" y="-100%" width="400%" height="400%" filterUnits="objectBoundingBox" primitiveUnits="userSpaceOnUse" color-interpolation-filters="sRGB">
	<feGaussianBlur stdDeviation="23 17" x="0%" y="0%" width="100%" height="100%" in="SourceGraphic" edgeMode="none" result="blur"></feGaussianBlur></filter></defs><g stroke-width="24.5" stroke="url(#nnneon-grad)" fill="none"><path d="M382.7949859679836 151.85724230458595C393.4414486509953 145.71161129234972 406.5585513490047 145.71161129234972 417.2050140320164 151.85896280598917L606.2950002494895 261.02993834334274C616.941462932501 267.175569355579 623.5000142815059 278.53604012091944 623.5000142815059 290.82902264679524V509.1709737215024C623.5000142815059 521.4639562473782 616.941462932501 532.8244270127186 606.2950002494895 538.9717785263581L417.2050140320164 648.1427540637117C406.5585513490047 654.2883850759479 393.4414486509953 654.2883850759479 382.7949859679836 648.1410335623084L193.70499975051064 538.9700580249548C183.0585370674989 532.8244270127186 176.4999857184942 521.4639562473782 176.4999857184942 509.1709737215024V290.82902264679524C176.4999857184942 278.53604012091944 183.0585370674989 267.175569355579 193.70499975051064 261.02821784193964L382.7949859679836 151.85724230458595Z " filter="url(#nnneon-filter)"></path><path d="M394.7949859679836 151.85724230458595C405.4414486509953 145.71161129234972 418.5585513490047 145.71161129234972 429.2050140320164 151.85896280598917L618.2950002494895 261.02993834334274C628.941462932501 267.175569355579 635.5000142815059 278.53604012091944 635.5000142815059 290.82902264679524V509.1709737215024C635.5000142815059 521.4639562473782 628.941462932501 532.8244270127186 618.2950002494895 538.9717785263581L429.2050140320164 648.1427540637117C418.5585513490047 654.2883850759479 405.4414486509953 654.2883850759479 394.7949859679836 648.1410335623084L205.70499975051064 538.9700580249548C195.0585370674989 532.8244270127186 188.4999857184942 521.4639562473782 188.4999857184942 509.1709737215024V290.82902264679524C188.4999857184942 278.53604012091944 195.0585370674989 267.175569355579 205.70499975051064 261.02821784193964L394.7949859679836 151.85724230458595Z " filter="url(#nnneon-filter2)" opacity="0.25"></path><path d="M370.7949859679836 151.85724230458595C381.4414486509953 145.71161129234972 394.5585513490047 145.71161129234972 405.2050140320164 151.85896280598917L594.2950002494895 261.02993834334274C604.941462932501 267.175569355579 611.5000142815059 278.53604012091944 611.5000142815059 290.82902264679524V509.1709737215024C611.5000142815059 521.4639562473782 604.941462932501 532.8244270127186 594.2950002494895 538.9717785263581L405.2050140320164 648.1427540637117C394.5585513490047 654.2883850759479 381.4414486509953 654.2883850759479 370.7949859679836 648.1410335623084L181.70499975051064 538.9700580249548C171.0585370674989 532.8244270127186 164.4999857184942 521.4639562473782 164.4999857184942 509.1709737215024V290.82902264679524C164.4999857184942 278.53604012091944 171.0585370674989 267.175569355579 181.70499975051064 261.02821784193964L370.7949859679836 151.85724230458595Z " filter="url(#nnneon-filter2)" opacity="0.25"></path><path d="M382.7949859679836 151.85724230458595C393.4414486509953 145.71161129234972 406.5585513490047 145.71161129234972 417.2050140320164 151.85896280598917L606.2950002494895 261.02993834334274C616.941462932501 267.175569355579 623.5000142815059 278.53604012091944 623.5000142815059 290.82902264679524V509.1709737215024C623.5000142815059 521.4639562473782 616.941462932501 532.8244270127186 606.2950002494895 538.9717785263581L417.2050140320164 648.1427540637117C406.5585513490047 654.2883850759479 393.4414486509953 654.2883850759479 382.7949859679836 648.1410335623084L193.70499975051064 538.9700580249548C183.0585370674989 532.8244270127186 176.4999857184942 521.4639562473782 176.4999857184942 509.1709737215024V290.82902264679524C176.4999857184942 278.53604012091944 183.0585370674989 267.175569355579 193.70499975051064 261.02821784193964L382.7949859679836 151.85724230458595Z "></path></g></svg>